<?xml version="1.0" standalone="no"?>
<!DOCTYPE svg PUBLIC "-//W3C//DTD SVG 1.1//EN" "http://www.w3.org/Graphics/SVG/1.1/DTD/svg11.dtd" >
<!--
2013-9-30: Created.
-->
<svg>
<metadata>
Created by iconfont
</metadata>
<defs>

<font id="iconfont" horiz-adv-x="1024" >
  <font-face
    font-family="iconfont"
    font-weight="500"
    font-stretch="normal"
    units-per-em="1024"
    ascent="896"
    descent="-128"
  />
    <missing-glyph />
    
    <glyph glyph-name="CancelAuthorization" unicode="&#58970;" d="M512-85.333333l-12.266667 8C420.266667-22.4 352.533333 39.466667 298.666667 106.666667c-56.533333 70.4-111.466667 240-167.466667 517.866666L128 640 512 853.333333l384-213.333333-3.2-15.466667C836.8 346.666667 781.866667 177.066667 725.333333 106.666667c-53.866667-67.2-121.6-129.066667-201.066666-184L512-85.333333zM176 618.133333c53.333333-258.666667 105.6-421.333333 155.733333-484.8 49.066667-60.8 109.333333-116.8 180.266667-166.933333 70.933333 50.133333 131.2 106.133333 180.266667 166.933333 50.666667 62.933333 102.933333 226.133333 155.733333 484.8l-336 186.666667-336-186.666667zM677.866667 278.4L572.266667 384l105.6 105.6-60.266667 60.266667L512 444.266667 406.4 549.866667 346.133333 489.6 451.733333 384l-105.6-105.6 60.266667-60.266667L512 323.733333l105.6-105.6 60.266667 60.266667z"  horiz-adv-x="1024" />

    
    <glyph glyph-name="Heart" unicode="&#58969;" d="M511.466667 10.666666999999961L186.666667 346.133333C135.466667 390.933333 106.666667 454.933333 106.666667 522.666667c0 62.933333 24.533333 121.6 68.8 165.866666S278.4 757.333333 341.333333 757.333333c65.066667 0 125.866667-26.133333 170.666667-73.6 44.8 47.466667 105.6 73.6 170.666667 73.6 62.933333 0 121.6-24.533333 165.866666-68.8S917.333333 585.6 917.333333 522.666667c0-67.733333-29.333333-131.733333-80-176.533334L511.466667 10.666666999999961zM341.333333 714.666667c-51.2 0-99.733333-19.733333-136-56C169.066667 622.4 149.333333 573.866667 149.333333 522.666667c0-55.466667 24-108.266667 65.6-144.533334l1.066667-1.066666 295.466667-304.533334 296 305.066667 0.533333 0.533333c42.666667 36.266667 66.666667 89.066667 66.666667 144.533334 0 51.2-19.733333 99.733333-56 136C782.4 694.933333 733.866667 714.666667 682.666667 714.666667c-53.333333 0-102.933333-21.333333-139.733334-60.266667-4.8-5.333333-9.6-10.666667-13.866666-16.533333L512 615.4666669999999l-17.066667 22.4c-4.266667 5.866667-9.066667 11.2-13.866666 16.533333C444.266667 693.333333 394.666667 714.666667 341.333333 714.666667zM469.333333 256c-10.666667 0-21.866667 4.266667-30.4 12.266667l-149.333333 149.333333c-16.533333 16.533333-16.533333 43.733333 0 60.266667 16.533333 16.533333 43.733333 16.533333 60.266667 0l149.333333-149.333334c16.533333-16.533333 16.533333-43.733333 0-60.266666-8-8-19.2-12.266667-29.866667-12.266667z"  horiz-adv-x="1024" />

    
    <glyph glyph-name="Unlock" unicode="&#58968;" d="M917.333333-21.333333H106.666667V490.666667h810.666666v-512z m-768 42.666666h725.333334V448H149.333333v-426.666667zM512 789.333333c135.466667 0 249.6-90.133333 286.4-213.333333h-90.666667c-33.066667 75.2-108.266667 128-195.733333 128-117.866667 0-213.333333-95.466667-213.333333-213.333333H213.333333c0 164.8 133.866667 298.666667 298.666667 298.666666zM384 277.333333h256v-85.333333H384z"  horiz-adv-x="1024" />

    
    <glyph glyph-name="Lock" unicode="&#58967;" d="M917.333333-21.333333H106.666667V490.666667h810.666666v-512z m-768 42.666666h725.333334V448H149.333333v-426.666667zM512 789.333333c164.8 0 298.666667-133.866667 298.666667-298.666666h-85.333334c0 117.866667-95.466667 213.333333-213.333333 213.333333S298.666667 608.533333 298.666667 490.666667H213.333333c0 164.8 133.866667 298.666667 298.666667 298.666666zM469.333333 362.666667h85.333334v-256H469.333333z"  horiz-adv-x="1024" />

    
    <glyph glyph-name="Lower" unicode="&#58966;" d="M106.666667 426.666667h810.666666v-85.333334H106.666667zM170.666667 298.666667h682.666666v-320H170.666667zM853.333333 469.333333H170.666667V789.333333h682.666666v-320zM213.333333 512h597.333334V746.666667H213.333333v-234.666667z"  horiz-adv-x="1024" />

    
    <glyph glyph-name="Higher" unicode="&#58965;" d="M917.333333 341.333333H106.666667V426.666667h810.666666zM853.333333 469.333333H170.666667V789.333333h682.666666zM853.333333-21.333333H170.666667v320h682.666666v-320z m-640 42.666666h597.333334v234.666667H213.333333v-234.666667z"  horiz-adv-x="1024" />

    
    <glyph glyph-name="Compare" unicode="&#58964;" d="M469.333333 789.333333h85.333334v-810.666666H469.333333zM106.666667 725.333333h320v-682.666666H106.666667zM917.333333 42.666667h-320V725.333333h320v-682.666666z m-277.333333 42.666666h234.666667V682.666667h-234.666667v-597.333334z"  horiz-adv-x="1024" />

    
    <glyph glyph-name="Copy" unicode="&#58963;" d="M106.666667 618.666667h640v-640H106.666667zM917.333333 149.333333H277.333333V789.333333h640v-640z m-597.333333 42.666667h554.666667V746.666667H320v-554.666667z"  horiz-adv-x="1024" />

    
    <glyph glyph-name="Stopwatch" unicode="&#58962;" d="M512-85.333333c-235.2 0-426.666667 191.466667-426.666667 426.666666s191.466667 426.666667 426.666667 426.666667 426.666667-191.466667 426.666667-426.666667-191.466667-426.666667-426.666667-426.666666z m0 810.666666c-211.733333 0-384-172.266667-384-384s172.266667-384 384-384 384 172.266667 384 384-172.266667 384-384 384zM381.333333 853.333333h261.333334v-117.333333h-261.333334zM723.2 552.533333l-150.933333-271.466666H451.733333V401.6l271.466667 150.933333z"  horiz-adv-x="1024" />

    
    <glyph glyph-name="Number" unicode="&#58961;" d="M853.333333 298.666667v-85.333334H170.666667v85.333334h682.666666z m0 256v-85.333334H170.666667V554.666667h682.666666zM256 42.666667L426.666667 725.333333h85.333333L341.333333 42.666667zM469.333333 42.666667l170.666667 682.666666h85.333333l-170.666666-682.666666z"  horiz-adv-x="1024" />

    
    <glyph glyph-name="Loading" unicode="&#58960;" d="M709.376 762.4l-64.069333-64.074667c-124.256 52.645333-273.370667 28.325333-374.666667-72.965333-101.290667-101.296-125.610667-250.410667-72.96-374.666667L133.6 186.624C49.642667 347.466667 75.210667 550.608 210.293333 685.701333c135.093333 135.088 338.229333 160.656 499.077334 76.693334z m104.32-680.101333c-135.088-135.088-338.224-160.650667-499.066667-76.693334l64.069334 64.069334c124.256-52.645333 273.370667-28.325333 374.661333 72.965333 101.290667 101.290667 125.610667 250.405333 72.965333 374.666667l64.074667 64.064c83.952-160.842667 58.389333-363.978667-76.698667-499.072z"  horiz-adv-x="1024" />

    
    <glyph glyph-name="Fold" unicode="&#58959;" d="M853.333333 42.666667H170.666667V725.333333h682.666666v-682.666666z m-640 42.666666h597.333334V682.666667H213.333333v-597.333334zM320 426.666667h384v-85.333334H320z"  horiz-adv-x="1024" />

    
    <glyph glyph-name="Unfold" unicode="&#58958;" d="M853.333333 42.666667H170.666667V725.333333h682.666666v-682.666666z m-640 42.666666h597.333334V682.666667H213.333333v-597.333334zM554.666667 576v-149.333333h149.333333v-85.333334h-149.333333v-149.333333H469.333333v149.333333H320V426.666667h149.333333V576h85.333334z"  horiz-adv-x="1024" />

    
    <glyph glyph-name="Unlink" unicode="&#58956;" d="M210.298667 202.981333L330.986667 82.293333l211.189333 211.189334 60.341333-60.336-271.530666-271.530667-241.36 241.36L361.152 474.506667l60.336-60.341334-211.189333-211.189333zM813.706667 565.013333L693.013333 685.706667 481.829333 474.506667 421.493333 534.848l271.530667 271.530667 241.36-241.36-271.530667-271.530667-60.336 60.341333 211.189334 211.189334zM512 323.658667l-90.506667-90.506667-60.341333 60.336L451.658667 384 512 323.658667z m150.848 150.853333L572.341333 384 512 444.341333l90.506667 90.506667 60.341333-60.336z"  horiz-adv-x="1024" />

    
    <glyph glyph-name="Link" unicode="&#58957;" d="M210.298667 202.981333L330.986667 82.293333l211.189333 211.189334 60.341333-60.336-271.530666-271.530667-241.36 241.36L361.152 474.506667l60.336-60.341334-211.189333-211.189333zM813.706667 565.013333L693.013333 685.706667 481.829333 474.506667 421.493333 534.848l271.530667 271.530667 241.36-241.36-271.530667-271.530667-60.336 60.341333 211.189334 211.189334zM602.506667 534.848l60.341333-60.336-241.36-241.36-60.336 60.336z"  horiz-adv-x="1024" />

    
    <glyph glyph-name="Share" unicode="&#58955;" d="M320 384m-213.333333 0a213.333333 213.333333 0 1 1 426.666666 0 213.333333 213.333333 0 1 1-426.666666 0ZM404.8 372.8l321.6-185.6c-22.4-18.133333-37.866667-44.266667-42.133333-74.133333l-322.133334 186.133333 42.666667 73.6z m217.066667 236.8c5.866667-28.8 20.266667-54.933333 40.533333-75.2L383.466667 373.866667l-42.666667 74.133333 281.066667 161.6zM800-21.333333c-31.466667 0-60.8 12.266667-83.2 34.133333-22.4 22.4-34.133333 51.733333-34.133333 83.2s12.266667 60.8 34.133333 83.2c22.4 22.4 51.733333 34.133333 83.2 34.133333s60.8-12.266667 83.2-34.133333c22.4-22.4 34.133333-51.733333 34.133333-83.2s-12.266667-60.8-34.133333-83.2c-22.4-21.866667-51.733333-34.133333-83.2-34.133333z m0 192c-19.733333 0-38.933333-8-52.8-21.866667-13.866667-13.866667-21.866667-33.066667-21.866667-52.8s8-38.933333 21.866667-52.8c13.866667-13.866667 33.066667-21.866667 52.8-21.866667s38.933333 8 52.8 21.866667c13.866667 13.866667 21.866667 33.066667 21.866667 52.8s-8 38.933333-21.866667 52.8c-13.866667 13.866667-33.066667 21.866667-52.8 21.866667z m-32 320c-40 0-77.333333 15.466667-105.6 43.733333S618.666667 600 618.666667 640s15.466667 77.333333 43.733333 105.6S728 789.333333 768 789.333333s77.333333-15.466667 105.6-43.733333c28.266667-28.266667 43.733333-65.6 43.733333-105.6s-15.466667-77.333333-43.733333-105.6S808 490.666667 768 490.666667z m0 256c-28.266667 0-55.466667-11.2-75.2-31.466667-20.266667-20.266667-31.466667-46.933333-31.466667-75.2 0-28.266667 11.2-55.466667 31.466667-75.2 20.266667-20.266667 46.933333-31.466667 75.2-31.466667s55.466667 11.2 75.2 31.466667c20.266667 20.266667 31.466667 46.933333 31.466667 75.2 0 28.266667-11.2 55.466667-31.466667 75.2-19.733333 20.266667-46.933333 31.466667-75.2 31.466667z"  horiz-adv-x="1024" />

    
    <glyph glyph-name="Dispatch" unicode="&#58954;" d="M256 554.666667c0-15.168 3.168-29.6 8.874667-42.666667H106.666667V597.333333l158.213333 0.005334A106.304 106.304 0 0 1 256 554.666667z m661.333333 42.666666v-85.333333H460.458667A106.304 106.304 0 0 1 469.333333 554.666667c0 15.173333-3.168 29.605333-8.88 42.672L917.333333 597.333333zM362.666667 682.666667c70.693333 0 128-57.306667 128-128S433.36 426.666667 362.666667 426.666667 234.666667 483.973333 234.666667 554.666667 291.973333 682.666667 362.666667 682.666667z m0-42.666667c-47.130667 0-85.333333-38.202667-85.333334-85.333333s38.202667-85.333333 85.333334-85.333334 85.333333 38.202667 85.333333 85.333334S409.797333 640 362.666667 640zM533.333333 213.333333c0-15.168 3.168-29.6 8.874667-42.666666H106.666667V256h435.546666A106.304 106.304 0 0 1 533.333333 213.333333z m362.666667 42.666667v-85.333333h-158.208A106.304 106.304 0 0 1 746.666667 213.333333c0 15.173333-3.168 29.6-8.88 42.666667H896zM640 341.333333c70.693333 0 128-57.306667 128-128s-57.306667-128-128-128-128 57.306667-128 128 57.306667 128 128 128z m0-42.666666c-47.130667 0-85.333333-38.202667-85.333333-85.333334s38.202667-85.333333 85.333333-85.333333 85.333333 38.202667 85.333333 85.333333-38.202667 85.333333-85.333333 85.333334z"  horiz-adv-x="1024" />

    
    <glyph glyph-name="Apollo" unicode="&#58953;" d="M658.133333 235.893333c12.912 22.32 37.04 37.333333 64.677334 37.333334 41.237333 0 74.666667-33.429333 74.666666-74.666667s-33.429333-74.666667-74.666666-74.666667c-27.637333 0-51.765333 15.013333-64.677334 37.333334H486.826667c-17.850667-87.568-95.296-153.456-188.133334-153.456-106.037333 0-192 85.962667-192 192 0 95.013333 69.013333 173.909333 159.653334 189.285333l30.869333-71.962667 1.477333 0.010667c-64.8 0-117.333333-52.533333-117.333333-117.333333s52.533333-117.333333 117.333333-117.333334 117.333333 52.533333 117.333334 117.333334c0 12.602667-1.984 24.746667-5.664 36.122666zM513.733333 492.837333c-24.976 0.778667-48.986667 14.08-62.4 37.306667-20.613333 35.712-8.378667 81.381333 27.333334 102 35.712 20.618667 81.376 8.378667 101.994666-27.333333 14.218667-24.624 12.816-53.984-1.136-76.597334l84.138667-145.728c84.757333 28.325333 180.538667-5.797333 226.96-86.197333 53.013333-91.834667 21.552-209.258667-70.277333-262.277333-82.288-47.504-185.12-27.184-243.754667 43.616l46.890667 62.72-0.752 1.274666c32.4-56.117333 104.16-75.349333 160.282666-42.949333 56.117333 32.405333 75.344 104.16 42.944 160.282667-32.4 56.117333-104.16 75.349333-160.277333 42.949333a117.248 117.248 0 0 1-28.453333-22.970667zM365.984 236.192c13.029333-22.384 14.032-50.933333 0.16-74.965333-20.624-35.712-66.288-47.946667-102-27.328-35.712 20.618667-47.946667 66.282667-27.328 101.994666 13.76 23.829333 38.666667 37.205333 64.330667 37.344L387.845333 423.413333c-66.906667 59.237333-85.242667 159.253333-38.826666 239.648 53.018667 91.834667 170.442667 123.296 262.277333 70.277334 82.282667-47.509333 116.101333-146.72 84.101333-232.906667l-77.76 9.253333-0.730666-1.290666c32.4 56.122667 13.173333 127.882667-42.944 160.282666-56.122667 32.4-127.882667 13.173333-160.282667-42.949333-32.4-56.117333-13.173333-127.877333 42.949333-160.277333a117.248 117.248 0 0 1 34.117334-13.157334z"  horiz-adv-x="1024" />

    
    <glyph glyph-name="History" unicode="&#58952;" d="M513.066667 682.666667L576 384l-64-58.666667-64 58.666667 65.066667 298.666667zM696.533333 277.333333L480 328.533333l-16 84.8 80 26.133334 152.533333-162.133334zM96 770.666667l74.133333-133.333334 46.933334-84.266666c94.4 163.2 302.933333 219.2 466.133333 124.8s219.2-302.933333 124.8-466.133334-302.933333-219.2-466.133333-124.8C206.4 165.333333 145.066667 322.133333 181.333333 466.133333L126.4 564.8C32 365.866667 105.066667 124.8 298.666667 12.8c204.266667-117.866667 465.066667-48 582.933333 156.266667s48 465.066667-155.733333 582.933333C570.666667 841.6 382.933333 822.4 249.6 718.933333L96 770.666667z"  horiz-adv-x="1024" />

    
    <glyph glyph-name="Refresh" unicode="&#58951;" d="M123.813333 800.357333l133.232-73.962666L341.333333 679.605333C178.293333 585.472 122.261333 376.373333 216.394667 213.333333c78.133333-135.333333 234.992-196.88 379.504-160.250666l98.613333-54.533334C495.413333-96.074667 254.496-23.322667 142.496 170.666667c-89.6 155.189333-70.522667 342.949333 33.072 476.053333l-51.754667 153.637333zM881.504 597.333333c89.6-155.189333 70.522667-342.949333-33.072-476.053333l51.754667-153.637333-133.232 73.962666L682.666667 88.394667c163.04 94.133333 219.072 303.226667 124.938666 466.272-78.133333 135.333333-234.992 196.88-379.504 160.250666L329.952 769.717333C528.581333 864.074667 769.504 791.322667 881.504 597.333333z"  horiz-adv-x="1024" />

    
    <glyph glyph-name="Reset" unicode="&#58950;" d="M96 772.1866669999999L170.058667 638.773333l46.682666-84.128 0.010667 0.016c94.256 163.253333 303.013333 219.194667 466.272 124.938667 163.253333-94.256 219.189333-303.013333 124.933333-466.272-94.256-163.253333-303.013333-219.194667-466.266666-124.938667-135.349333 78.144-196.933333 234.981333-160.325334 379.344l-54.773333 98.613334c-94.24-198.8-21.450667-439.92 172.426667-551.856C503.093333-103.32266700000002 764.042667-33.40266699999995 881.866667 170.66666699999996c117.818667 204.069333 47.898667 465.013333-156.170667 582.837333-155.146667 89.573333-343.152 70.634667-476.16-33.253333L96 772.1866669999999z"  horiz-adv-x="1024" />

    
    <glyph glyph-name="Medicine" unicode="&#58949;" d="M326.314667-21.376c-57.322667 0-110.501333 22.250667-150.853334 62.602667l-6.784 6.789333c-40.352 40.352-62.229333 93.904-62.602666 150.848 0.373333 56.949333 22.250667 110.501333 62.602666 150.853333L343.285333 524.32l308.485334-308.490667-174.608-174.608c-40.352-40.352-93.525333-62.602667-150.848-62.602666z m16.970666 485.36l-144.437333-144.437333c-32.053333-32.053333-50.16-75.050667-49.781333-120.682667 0-45.253333 17.722667-88.624 49.781333-120.677333l6.784-6.789334c32.053333-32.053333 75.050667-50.154667 120.682667-49.781333 45.253333 0 88.624 17.728 120.677333 49.781333l144.437333 144.437334-248.144 248.149333zM854.288 720.053333c83.344-83.344 83.344-218.357333 0-301.701333l-175.744-175.738667-308.48 308.485334 175.733333 175.738666c83.344 83.344 218.357333 83.344 301.701334 0l6.789333-6.784z"  horiz-adv-x="1024" />

    
    <glyph glyph-name="Management" unicode="&#58948;" d="M688 142.933333c19.733333-22.4 45.866667-39.466667 75.2-49.066666C696 35.2 608 0 512 0s-184 35.2-251.2 93.866667c29.333333 9.6 54.933333 26.666667 75.2 49.066666C385.6 106.666667 446.4 85.333333 512 85.333333c64.533333 0 123.733333 20.266667 172.8 54.933334l3.2 2.666666zM341.333333 728v-2.666667c0-29.866667 7.466667-58.133333 21.333334-82.666666C284.8 597.866667 229.333333 518.933333 216.533333 426.666667H208c-28.8 0-55.466667-6.933333-79.466667-19.733334 8.533333 141.333333 92.8 261.333333 212.8 321.066667z m553.6-318.933333v-2.133334c-23.466667 12.266667-50.666667 19.733333-79.466666 19.733334h-8.533334c-13.333333 92.266667-68.8 171.2-146.133333 216 13.333333 24.533333 21.333333 52.8 21.333333 82.666666v2.666667c120-59.2 203.733333-178.666667 212.8-318.933333zM512 597.333333c-70.4 0-128 57.6-128 128S441.6 853.333333 512 853.333333s128-57.6 128-128-57.6-128-128-128z m0 213.333334c-46.933333 0-85.333333-38.4-85.333333-85.333334s38.4-85.333333 85.333333-85.333333 85.333333 38.4 85.333333 85.333333-38.4 85.333333-85.333333 85.333334zM208 128c-70.4 0-128 57.6-128 128s57.6 128 128 128 128-57.6 128-128-57.6-128-128-128z m0 213.333333c-46.933333 0-85.333333-38.4-85.333333-85.333333s38.4-85.333333 85.333333-85.333333 85.333333 38.4 85.333333 85.333333-38.4 85.333333-85.333333 85.333333zM816 128c-70.4 0-128 57.6-128 128s57.6 128 128 128 128-57.6 128-128-57.6-128-128-128z m0 213.333333c-46.933333 0-85.333333-38.4-85.333333-85.333333s38.4-85.333333 85.333333-85.333333 85.333333 38.4 85.333333 85.333333-38.4 85.333333-85.333333 85.333333z"  horiz-adv-x="1024" />

    
    <glyph glyph-name="ExistResource" unicode="&#58947;" d="M512 789.333333l184.533333-106.666666v-213.333334L512 362.666667 327.466667 469.333333V682.666667zM293.333333-21.333333l-184.533333 106.666666v213.333334L293.333333 405.333333l184.533334-106.666666v-213.333334L293.333333-21.333333z m-141.866666 131.2L293.333333 27.733333l141.866667 82.133334v164.266666L293.333333 356.266667l-141.866666-82.133334v-164.266666zM674.666667-20.266667l-150.933334 150.933334 60.266667 60.266666 90.666667-90.666666 180.8 180.8 60.266666-60.266667-241.066666-241.066667z"  horiz-adv-x="1024" />

    
    <glyph glyph-name="NewResource" unicode="&#58946;" d="M512 789.333333l184.533333-106.666666v-213.333334L512 362.666667 327.466667 469.333333V682.666667zM293.333333-21.333333l-184.533333 106.666666v213.333334L293.333333 405.333333l184.533334-106.666666v-213.333334L293.333333-21.333333z m-141.866666 131.2L293.333333 27.733333l141.866667 82.133334v164.266666L293.333333 356.266667l-141.866666-82.133334v-164.266666zM789.333333 320v-128h128v-85.333333h-128v-128h-85.333333v128h-128v85.333333h128v128h85.333333z"  horiz-adv-x="1024" />

    
    <glyph glyph-name="Resource" unicode="&#58945;" d="M512 789.333333l184.533333-106.666666v-213.333334L512 362.666667 327.466667 469.333333V682.666667zM730.666667-21.333333l-184.533334 106.666666v213.333334L730.666667 405.333333l184.533333-106.666666v-213.333334L730.666667-21.333333z m-141.866667 131.2l141.866667-82.133334 141.866666 82.133334v164.266666L730.666667 356.266667l-141.866667-82.133334v-164.266666zM293.333333-21.333333l-184.533333 106.666666v213.333334L293.333333 405.333333l184.533334-106.666666v-213.333334L293.333333-21.333333z m-141.866666 131.2L293.333333 27.733333l141.866667 82.133334v164.266666L293.333333 356.266667l-141.866666-82.133334v-164.266666z"  horiz-adv-x="1024" />

    
    <glyph glyph-name="Analysis" unicode="&#58944;" d="M512 0c-102.4 0-198.933333 40-271.466667 112.533333C168 185.066667 128 281.6 128 384c0 98.666667 37.333333 192 105.066667 264 61.866667 65.6 145.066667 107.2 234.133333 117.333333L490.666667 768v-393.066667l277.866666-277.866666-18.666666-14.933334C681.6 28.266667 599.466667 0 512 0zM448 719.466667C378.133333 706.133333 313.6 670.933333 264 618.666667 203.733333 554.666667 170.666667 471.466667 170.666667 384c0-91.2 35.733333-177.066667 99.733333-241.6C334.933333 78.4 420.8 42.666667 512 42.666667c69.333333 0 135.466667 20.266667 192 59.2L448 357.333333V719.466667z m350.933333-592L533.333333 393.066667V768l24-2.666667c89.066667-10.666667 172.266667-52.266667 233.6-117.333333C858.666667 576 896 482.666667 896 384c0-87.466667-28.266667-169.6-82.666667-237.866667l-14.4-18.666666zM576 410.666667l218.133333-218.133334c38.4 56.533333 59.2 122.666667 59.2 192 0 87.466667-33.066667 170.666667-93.333333 234.666667-49.6 52.266667-114.133333 87.466667-184 100.8v-309.333333zM533.333333 852.8c249.066667-11.2 448-217.066667 448-468.8 0-122.133333-46.4-233.066667-122.666666-316.266667l-325.333334 325.333334V852.8z"  horiz-adv-x="1024" />

    
    <glyph glyph-name="Rocket" unicode="&#58943;" d="M533.248-21.333333l-42.666667 128-256 256-128 42.666666 159.466667 157.333334 86.933333-19.733334 244.266667 246.4h320v-320l-244.8-246.4 21.866667-84.266666-161.066667-160z m-347.2 445.333333l71.466667-24 270.4-270.4 24-72.533333 94.933333 94.4-21.866667 84.266666 249.6 251.2V746.666667h-259.733333l-248.533333-250.133334-86.933334 19.733334-93.333333-92.266667zM170.581333-21.333333l-64 64 149.333334 170.666666 85.333333-85.333333zM661.248 533.333333m-85.333333 0a85.333333 85.333333 0 1 1 170.666666 0 85.333333 85.333333 0 1 1-170.666666 0Z"  horiz-adv-x="1024" />

    
    <glyph glyph-name="Interface" unicode="&#58942;" d="M981.333333 42.666667h-341.333333v170.666666h341.333333v-170.666666z m-298.666666 42.666666h256v85.333334h-256v-85.333334z m298.666666 213.333334h-341.333333V469.333333h341.333333v-170.666666z m-298.666666 42.666666h256V426.666667h-256v-85.333334z m298.666666 213.333334h-341.333333V725.333333h341.333333v-170.666666z m-298.666666 42.666666h256V682.666667h-256v-85.333334zM42.666667 426.666667h597.333333v-85.333334H42.666667zM661.333333 85.333333H481.066667L386.133333 370.666667l81.066667 26.666666 75.733333-226.666666H661.333333zM296.533333 370.666667l-81.066666 26.666666L310.4 682.666667H661.333333v-85.333334H372.266667z"  horiz-adv-x="1024" />

    
    <glyph glyph-name="Safety" unicode="&#58941;" d="M512-85.33333300000004l-12.266667 8C420.266667-22.399999999999977 352.533333 39.46666700000003 298.666667 106.66666699999996c-56.533333 70.4-111.466667 240-167.466667 517.866666L128 640 512 853.333333l384-213.333333-3.2-15.466667C836.8 346.66666699999996 781.866667 177.06666700000005 725.333333 106.66666699999996c-53.866667-67.2-121.6-129.066667-201.066666-184L512-85.33333300000004zM176 618.133333c53.333333-258.666667 105.6-421.333333 155.733333-484.8 49.066667-60.8 109.333333-116.8 180.266667-166.933333 70.933333 50.133333 131.2 106.133333 180.266667 166.933333 50.666667 62.933333 102.933333 226.133333 155.733333 484.8l-336 186.666667-336-186.666667zM512 56.53333299999997V725.333333L250.666667 580.266667c46.933333-205.866667 89.6-333.333333 128.533333-381.866667 38.4-48.533333 82.666667-96 132.8-141.866667z"  horiz-adv-x="1024" />

    
    <glyph glyph-name="Authorization" unicode="&#58940;" d="M512-85.333333l-12.266667 8C420.266667-22.4 352.533333 39.466667 298.666667 106.666667c-56.533333 70.4-111.466667 240-167.466667 517.866666L128 640 512 853.333333l384-213.333333-3.2-15.466667C836.8 346.666667 781.866667 177.066667 725.333333 106.666667c-53.866667-67.2-121.6-129.066667-201.066666-184L512-85.333333zM176 618.133333c53.333333-258.666667 105.6-421.333333 155.733333-484.8 49.066667-60.8 109.333333-116.8 180.266667-166.933333 70.933333 50.133333 131.2 106.133333 180.266667 166.933333 50.666667 62.933333 102.933333 226.133333 155.733333 484.8l-336 186.666667-336-186.666667zM462.4 236.8L311.466667 387.733333 371.733333 448l90.666667-90.666667 211.2 211.2 60.266667-60.266666-271.466667-271.466667z"  horiz-adv-x="1024" />

    
    <glyph glyph-name="Rank" unicode="&#58939;" d="M405.333333 789.333333h213.333334v-810.666666H405.333333zM320-21.333333H106.666667V533.333333h213.333333v-554.666666z m-170.666667 42.666666h128V490.666667H149.333333v-469.333334zM917.333333-21.333333h-213.333333v341.333333h213.333333v-341.333333z m-170.666666 42.666666h128v256h-128v-256z"  horiz-adv-x="1024" />

    
    <glyph glyph-name="Special" unicode="&#58938;" d="M554.666667 725.333333v-267.429333l231.605333 133.712 42.666667-73.898667L597.333333 384l231.605334-133.722667-42.666667-73.898666-231.610667 133.717333L554.666667 42.666667H469.333333v267.434666l-231.605333-133.717333-42.666667 73.898667L426.666667 384.005333l-231.6 133.706667 42.666666 73.904L469.333333 457.909333 469.333333 725.333333h85.333334z"  horiz-adv-x="1024" />

    
    <glyph glyph-name="Edit" unicode="&#58937;" d="M320-21.333333H106.666667v192l480 480 194.666666-194.666667L320-21.333333z m-170.666667 42.666666h152.533334l419.733333 434.133334L586.666667 590.4l-437.333334-437.333333V21.333333zM734.933333 789.333333L917.333333 608.533333l-103.466666-106.666666-183.466667 183.466666L734.933333 789.333333z"  horiz-adv-x="1024" />

    
    <glyph glyph-name="Restart" unicode="&#58936;" d="M512-85.333333c-258.666667 0-469.333333 210.666667-469.333333 469.333333S253.333333 853.333333 512 853.333333s469.333333-210.666667 469.333333-469.333333-210.666667-469.333333-469.333333-469.333333z m0 896c-235.2 0-426.666667-191.466667-426.666667-426.666667s191.466667-426.666667 426.666667-426.666667 426.666667 191.466667 426.666667 426.666667-191.466667 426.666667-426.666667 426.666667zM448 640l64-149.333333c-58.666667 0-106.666667-48-106.666667-106.666667 0-34.666667 16.533333-66.133333 42.666667-85.333333l45.333333-105.6C396.266667 202.133333 320 284.266667 320 384c0 67.2 34.666667 126.933333 87.466667 161.066667L448 640zM576 129.066667l-64 149.333333c58.666667 0 106.666667 48 106.666667 106.666667 0 34.666667-16.533333 66.133333-42.666667 85.333333L530.666667 576c97.066667-9.6 173.333333-91.2 173.333333-190.933333 0-67.2-34.666667-126.933333-87.466667-161.066667l-40.533333-94.933333z"  horiz-adv-x="1024" />

    
    <glyph glyph-name="Pause" unicode="&#58935;" d="M512-85.333333c-258.666667 0-469.333333 210.666667-469.333333 469.333333S253.333333 853.333333 512 853.333333s469.333333-210.666667 469.333333-469.333333-210.666667-469.333333-469.333333-469.333333z m0 896c-235.2 0-426.666667-191.466667-426.666667-426.666667s191.466667-426.666667 426.666667-426.666667 426.666667 191.466667 426.666667 426.666667-191.466667 426.666667-426.666667 426.666667zM469.333333 512v-256H384V512h85.333333z m170.666667 0v-256h-85.333333V512h85.333333z"  horiz-adv-x="1024" />

    
    <glyph glyph-name="Stop" unicode="&#58934;" d="M512-85.333333c-258.666667 0-469.333333 210.666667-469.333333 469.333333S253.333333 853.333333 512 853.333333s469.333333-210.666667 469.333333-469.333333-210.666667-469.333333-469.333333-469.333333z m0 896c-235.2 0-426.666667-191.466667-426.666667-426.666667s191.466667-426.666667 426.666667-426.666667 426.666667 191.466667 426.666667 426.666667-191.466667 426.666667-426.666667 426.666667zM384 512h256v-256H384z"  horiz-adv-x="1024" />

    
    <glyph glyph-name="Play" unicode="&#58933;" d="M512-85.333333c-258.666667 0-469.333333 210.666667-469.333333 469.333333S253.333333 853.333333 512 853.333333s469.333333-210.666667 469.333333-469.333333-210.666667-469.333333-469.333333-469.333333z m0 896c-235.2 0-426.666667-191.466667-426.666667-426.666667s191.466667-426.666667 426.666667-426.666667 426.666667 191.466667 426.666667 426.666667-191.466667 426.666667-426.666667 426.666667zM704 384l-277.333333-170.666667V554.666667z"  horiz-adv-x="1024" />

    
    <glyph glyph-name="More" unicode="&#58932;" d="M213.333333 448h128v-128H213.333333zM448 448h128v-128H448zM682.666667 448h128v-128h-128z"  horiz-adv-x="1024" />

    
    <glyph glyph-name="Next" unicode="&#58928;" d="M365.866667 43.733333l-59.733334 61.866667L594.666667 384 306.133333 662.4l59.733334 61.866667L717.333333 384z"  horiz-adv-x="1024" />

    
    <glyph glyph-name="Downward" unicode="&#58929;" d="M512 178.666667L171.733333 530.133333l61.866667 59.733334L512 301.333333l278.4 288.533334 61.866667-59.733334z"  horiz-adv-x="1024" />

    
    <glyph glyph-name="Upward" unicode="&#58930;" d="M790.4 183.466667L512 472l-278.4-288.533333-61.866667 59.733333L512 594.666667l340.266667-351.466667z"  horiz-adv-x="1024" />

    
    <glyph glyph-name="Previous" unicode="&#58931;" d="M658.133333 43.733333L306.666667 384l351.466666 340.266667 59.733334-61.866667L429.333333 384l288.533334-278.4z"  horiz-adv-x="1024" />

    
    <glyph glyph-name="LineChart" unicode="&#58927;" d="M106.666667 789.333333h42.666666v-768h768v-42.666666H106.666667V789.333333zM416.533333 227.733333l-75.733333 75.2-46.4-45.333333L234.666667 318.933333l107.2 103.466667L416 348.266667l266.666667 266.666666 234.666666-231.466666-59.733333-60.8L682.666667 494.4z"  horiz-adv-x="1024" />

    
    <glyph glyph-name="Net" unicode="&#58926;" d="M512-85.333333c-258.666667 0-469.333333 210.666667-469.333333 469.333333S253.333333 853.333333 512 853.333333s469.333333-210.666667 469.333333-469.333333-210.666667-469.333333-469.333333-469.333333z m0 896c-235.2 0-426.666667-191.466667-426.666667-426.666667s191.466667-426.666667 426.666667-426.666667 426.666667 191.466667 426.666667 426.666667-191.466667 426.666667-426.666667 426.666667zM512 810.666667c35.2 0 69.333333-4.266667 102.4-12.266667 45.866667-37.333333 85.333333-82.133333 116.266667-132.266667 22.4 10.666667 44.266667 22.933333 65.066666 36.8 10.666667-9.6 21.333333-19.733333 30.933334-30.4-23.466667-16.533333-48.533333-30.933333-74.666667-43.733333 34.666667-67.2 55.466667-142.933333 58.133333-223.466667h128c0.533333-6.933333 0.533333-14.4 0.533334-21.333333 0-6.933333 0-14.4-0.533334-21.333333h-128c-3.2-79.466667-24-154.666667-58.133333-221.333334 26.666667-12.8 51.733333-27.733333 75.733333-44.266666-9.6-10.666667-20.266667-20.8-30.933333-30.4-20.8 14.4-43.2 26.666667-66.133333 37.333333-32-51.733333-72.533333-97.066667-119.466667-134.933333-32-7.466667-65.066667-11.733333-99.2-11.733334-34.666667 0-68.266667 4.266667-100.8 11.733334C366.933333 5.333333 328.533333 48 297.6 96c-21.333333-11.2-42.133333-23.466667-61.333333-37.866667-11.2 9.6-21.866667 19.2-31.466667 29.866667 22.4 16.533333 46.4 31.466667 71.466667 44.8A531.093333 531.093333 0 0 0 213.866667 362.666667h-128c-0.533333 6.933333-0.533333 14.4-0.533334 21.333333 0 6.933333 0 14.4 0.533334 21.333333h128c3.2 83.733333 25.6 162.133333 62.933333 231.466667-25.066667 12.8-48.533333 27.733333-70.933333 44.266667 10.133333 10.666667 20.8 20.266667 32 29.866666 19.2-13.866667 40-26.133333 60.8-37.333333 30.933333 47.466667 68.8 89.6 112.533333 125.333333C443.733333 806.4 477.333333 810.666667 512 810.666667z m-21.333333-661.333334c-53.866667-3.733333-105.6-15.466667-153.6-35.2 39.466667-60.266667 92.266667-110.933333 153.6-148.8V149.333333z m42.666666 1.066667v-184c63.466667 38.933333 117.333333 91.733333 157.333334 154.666667-49.066667 17.6-101.866667 27.733333-157.333334 29.333333zM490.666667 362.666667H256.533333c3.2-76.266667 24-148.266667 58.133334-211.733334 54.4 22.933333 113.6 37.333333 176 41.066667v170.666667z m42.666666 0v-169.6c62.933333-1.066667 123.2-13.333333 179.2-34.666667 32 61.866667 51.733333 131.2 54.933334 204.266667H533.333333zM315.733333 618.666667l-1.6-3.2C280 552.533333 259.733333 481.066667 256.533333 405.333333H490.666667V578.133333C428.8 581.333333 370.133333 595.733333 315.733333 618.666667z m396.8-6.933334l-4.266666-1.6c-54.4-20.266667-113.6-32-174.933334-33.066666V405.333333h234.133334c-2.666667 74.133333-22.4 144-54.933334 206.4z m-179.2 192v-184c55.466667 1.066667 108.266667 11.733333 157.333334 29.333334-40 62.933333-93.866667 115.733333-157.333334 154.666666z m-42.666666-1.066666c-60.8-37.333333-113.066667-87.466667-152.533334-147.2C385.6 636.266667 437.333333 624 490.666667 620.266667V802.666667z"  horiz-adv-x="1024" />

    
    <glyph glyph-name="Clock" unicode="&#58925;" d="M512-85.333333c-258.666667 0-469.333333 210.666667-469.333333 469.333333S253.333333 853.333333 512 853.333333s469.333333-210.666667 469.333333-469.333333-210.666667-469.333333-469.333333-469.333333z m0 896c-235.2 0-426.666667-191.466667-426.666667-426.666667s191.466667-426.666667 426.666667-426.666667 426.666667 191.466667 426.666667 426.666667-191.466667 426.666667-426.666667 426.666667zM512 768l85.333333-384-85.333333-85.333333-85.333333 85.333333 85.333333 384zM770.666667 234.666667L469.333333 309.866667 437.866667 426.666667l116.8 31.466666 216-223.466666z"  horiz-adv-x="1024" />

    
    <glyph glyph-name="ArrowRight" unicode="&#58921;" d="M663.056 383.728l-60.336-60.341333h-0.005333L414.154667 134.826667l-60.336 60.336 188.554666 188.565333-181.013333 181.013333 60.341333 60.346667 241.354667-241.36z"  horiz-adv-x="1024" />

    
    <glyph glyph-name="ArrowTop" unicode="&#58922;" d="M753.632 293.525333l-60.341333-60.341333-181.018667 181.024-181.013333-181.024-60.346667 60.341333L512.272 534.88l241.36-241.354667z"  horiz-adv-x="1024" />

    
    <glyph glyph-name="ArrowBottom" unicode="&#58923;" d="M753.632 474.202667l-60.341333 60.341333-181.018667-181.024-181.013333 181.024-60.346667-60.341333 241.36-241.36 241.36 241.36z"  horiz-adv-x="1024" />

    
    <glyph glyph-name="ArrowLeft" unicode="&#58924;" d="M602.474667 142.368l60.341333 60.341333-181.013333 181.018667 181.013333 181.013333-60.341333 60.346667L361.12 383.728l241.354667-241.36z"  horiz-adv-x="1024" />

    
    <glyph glyph-name="Team" unicode="&#58920;" d="M918.933333-21.333333H104.533333l4.266667 25.066666c10.666667 59.2 52.8 114.666667 118.933333 156.266667 76.266667 48 177.066667 74.666667 283.733334 74.666667s207.466667-26.666667 283.733333-74.666667c66.133333-41.6 108.266667-97.066667 118.933333-156.266667l4.8-25.066666z m-760.533333 42.666666h707.2c-14.933333 37.866667-46.933333 73.6-92.8 102.4-69.333333 43.733333-162.133333 68.266667-260.8 68.266667s-191.466667-24-260.8-68.266667c-45.866667-28.8-77.866667-64.533333-92.8-102.4zM512 298.666667c-65.6 0-126.933333 25.6-173.333333 72S266.666667 478.4 266.666667 544s25.6 126.933333 72 173.333333C384.533333 763.733333 446.4 789.333333 512 789.333333s126.933333-25.6 173.333333-72S757.333333 609.6 757.333333 544s-25.6-126.933333-72-173.333333S577.6 298.666667 512 298.666667z m0 448c-53.866667 0-105.066667-21.333333-143.466667-59.2C330.133333 649.066667 309.333333 598.4 309.333333 544s21.333333-105.066667 59.2-143.466667C406.933333 362.666667 457.6 341.333333 512 341.333333c53.866667 0 105.066667 21.333333 143.466667 59.2C693.333333 438.933333 714.666667 489.6 714.666667 544s-21.333333 105.066667-59.2 143.466667C617.066667 725.333333 565.866667 746.666667 512 746.666667zM512 320c128 0 232-152 234.666667-341.333333H277.333333c2.666667 189.333333 106.666667 341.333333 234.666667 341.333333zM324.266667 701.866667c-13.866667-16.533333-25.6-35.2-35.2-54.933334C241.066667 623.466667 208 574.4 208 517.333333c0-73.6 55.466667-134.4 126.933333-142.933333 30.4-32 69.866667-55.466667 113.6-67.2H448c-13.333333-5.866667-26.666667-13.333333-38.933333-22.4-17.6 12.266667-36.8 19.2-57.066667 19.2-42.666667 0-80.533333-30.4-106.133333-77.866667-70.933333-18.133333-125.866667-53.866667-148.8-97.6l-1.066667-2.133333h86.933333c-14.4-12.8-27.2-26.666667-37.866666-41.066667H42.666667c2.666667 77.333333 73.066667 144 174.933333 175.466667 22.4 35.733333 52.266667 62.933333 85.333333 76.266667C224 358.4 165.333333 430.933333 165.333333 517.333333c0 92.8 67.733333 169.6 156.266667 184l2.666667 0.533334zM858.666667 517.333333c0-86.4-58.666667-158.933333-138.133334-180.266666 33.6-13.333333 62.933333-40 85.333334-76.266667 101.866667-31.466667 172.8-98.133333 174.933333-175.466667h-102.933333c-10.666667 14.4-23.466667 28.266667-37.866667 41.066667h87.466667c-22.4 44.8-77.866667 81.6-149.866667 99.733333-25.066667 47.466667-62.933333 77.866667-105.6 77.866667-20.266667 0-39.466667-6.933333-57.066667-19.2-12.266667 9.066667-25.6 16.533333-39.466666 22.4h0.533333c43.733333 11.733333 82.666667 35.2 113.066667 67.2h1.6C761.6 384 816 444.266667 816 517.333333c0 57.066667-33.066667 106.666667-81.6 129.6-9.066667 19.733333-20.8 38.4-35.2 54.933334 90.666667-13.333333 159.466667-90.666667 159.466667-184.533334z"  horiz-adv-x="1024" />

    
    <glyph glyph-name="Role" unicode="&#58919;" d="M918.933333-21.333333H576l-42.666667 192h-14.4l21.333334 63.466666 16.533333-1.066666c94.4-6.933333 182.933333-35.2 248.533333-79.466667 61.333333-41.6 98.666667-93.333333 108.8-149.866667l4.8-25.066666z m-308.8 42.666666h255.466667c-13.333333 35.733333-42.133333 68.8-83.733333 97.066667-55.466667 37.333333-129.066667 62.4-208.533334 70.933333l36.8-168zM448-21.333333H104.533333l4.266667 25.066666c10.133333 55.466667 46.933333 106.666667 106.133333 147.733334l2.666667 2.133333c66.133333 44.8 154.133333 73.066667 249.066667 79.466667l16.533333 1.066666 21.333333-63.466666H490.666667l-42.666667-192z m-289.6 42.666666h255.466667l37.333333 167.466667c-80-8.533333-153.6-33.066667-208.533333-70.933333l-2.666667-1.6c-40.533333-27.733333-68.266667-60.266667-81.6-94.933334zM512 298.666667c-65.6 0-126.933333 25.6-173.333333 72S266.666667 478.4 266.666667 544s25.6 126.933333 72 173.333333C384.533333 763.733333 446.4 789.333333 512 789.333333s126.933333-25.6 173.333333-72S757.333333 609.6 757.333333 544s-25.6-126.933333-72-173.333333S577.6 298.666667 512 298.666667z m0 448c-53.866667 0-105.066667-21.333333-143.466667-59.2C330.133333 649.066667 309.333333 598.4 309.333333 544s21.333333-105.066667 59.2-143.466667C406.933333 362.666667 457.6 341.333333 512 341.333333c53.866667 0 105.066667 21.333333 143.466667 59.2C693.333333 438.933333 714.666667 489.6 714.666667 544s-21.333333 105.066667-59.2 143.466667C617.066667 725.333333 565.866667 746.666667 512 746.666667zM512 320c128 0 232-152 234.666667-341.333333H277.333333c2.666667 189.333333 106.666667 341.333333 234.666667 341.333333z m21.333333-149.333333h-42.666666l-42.666667-192h128l-42.666667 192z m21.333334 106.666666H469.333333l21.333334-64h42.666666l21.333334 64z"  horiz-adv-x="1024" />

    
    <glyph glyph-name="User" unicode="&#58918;" d="M918.933333-21.333333H105.066667l4.266666 25.066666c10.666667 59.2 52.8 114.666667 118.933334 156.266667 76.266667 48 177.066667 74.666667 283.733333 74.666667s207.466667-26.666667 283.733333-74.666667c66.133333-41.6 108.266667-97.066667 118.933334-156.266667l4.266666-25.066666z m-760.533333 42.666666h707.2c-14.933333 37.866667-46.933333 73.6-92.8 102.4-69.333333 43.733333-162.133333 68.266667-260.8 68.266667s-191.466667-24-260.8-68.266667c-45.866667-28.8-77.866667-64.533333-92.8-102.4zM512 298.666667c-65.6 0-126.933333 25.6-173.333333 72S266.666667 478.4 266.666667 544s25.6 126.933333 72 173.333333S446.4 789.333333 512 789.333333s126.933333-25.6 173.333333-72S757.333333 609.6 757.333333 544s-25.6-126.933333-72-173.333333S577.6 298.666667 512 298.666667z m0 448c-54.4 0-105.066667-21.333333-143.466667-59.2C330.666667 649.066667 309.333333 598.4 309.333333 544s21.333333-105.066667 59.2-143.466667C406.933333 362.666667 457.6 341.333333 512 341.333333c53.866667 0 105.066667 21.333333 143.466667 59.2C693.333333 438.933333 714.666667 489.6 714.666667 544s-21.333333 105.066667-59.2 143.466667C617.066667 725.333333 565.866667 746.666667 512 746.666667zM512 320c128 0 232-152 234.666667-341.333333H277.333333c2.666667 189.333333 106.666667 341.333333 234.666667 341.333333z"  horiz-adv-x="1024" />

    
    <glyph glyph-name="Information" unicode="&#58917;" d="M917.333333-21.333333H106.666667V789.333333h810.666666v-810.666666z m-768 42.666666h725.333334V746.666667H149.333333v-725.333334zM789.333333 234.666667v-128h-234.666666v128h234.666666z m0 213.333333v-128h-234.666666V448h234.666666z m0 213.333333v-128H234.666667V661.333333h554.666666zM469.333333 106.666667H234.666667V448h234.666666v-341.333333z m-192 42.666666h149.333334V405.333333H277.333333v-256z"  horiz-adv-x="1024" />

    
    <glyph glyph-name="Monitor" unicode="&#58916;" d="M554.666667 128v-64h192v-85.333333H277.333333v85.333333h192v64h85.333334zM917.333333 106.666667H106.666667V789.333333h810.666666v-682.666666z m-768 42.666666h725.333334V746.666667H149.333333v-597.333334zM406.933333 241.066667L297.066667 405.333333H234.666667V490.666667h108.266666l60.8-91.733334 169.6 275.733334L704.533333 490.666667H789.333333v-85.333334h-128.533333l-82.133333 114.666667z"  horiz-adv-x="1024" />

    
    <glyph glyph-name="Milepost" unicode="&#58915;" d="M917.333333-21.333333H106.666667V704h810.666666v-725.333333z m-768 42.666666h725.333334V661.333333H149.333333v-640zM362.666667 789.333333v-106.666666H234.666667V789.333333h128z m426.666666 0v-106.666666h-128V789.333333h128zM597.333333 256v-85.333333H320v85.333333h277.333333z m149.333334 128v-85.333333H362.666667V384h384zM512 512v-85.333333H277.333333V512h234.666667z"  horiz-adv-x="1024" />

    
    <glyph glyph-name="Calendar" unicode="&#58914;" d="M917.333333-21.333333H106.666667V704h810.666666v-725.333333z m-768 42.666666h725.333334V661.333333H149.333333v-640zM362.666667 789.333333v-106.666666H234.666667V789.333333h128z m426.666666 0v-106.666666h-128V789.333333h128zM405.333333 320v-128H277.333333v128h128z m170.666667 0v-128H448v128h128z m170.666667 0v-128h-128v128h128zM405.333333 490.666667v-128H277.333333V490.666667h128z m170.666667 0v-128H448V490.666667h128z m170.666667 0v-128h-128V490.666667h128z"  horiz-adv-x="1024" />

    
    <glyph glyph-name="Publish" unicode="&#58913;" d="M463.466667-74.666667l-96 317.866667-310.4 139.733333 884.8 442.666667-69.866667-810.666667-283.733333 128.533334L463.466667-74.666667zM156.266667 385.066667l246.4-111.466667L475.2 32l94.933333 165.866667 264.533334-119.466667 58.133333 674.666667-736.533333-368zM853.333333 704l-426.666666-415.466667 56.533333-190.4 73.6 131.2z"  horiz-adv-x="1024" />

    
    <glyph glyph-name="Dashboard" unicode="&#58912;" d="M512-85.333333c-258.666667 0-469.333333 210.666667-469.333333 469.333333S253.333333 853.333333 512 853.333333s469.333333-210.666667 469.333333-469.333333-210.666667-469.333333-469.333333-469.333333z m0 896c-235.2 0-426.666667-191.466667-426.666667-426.666667s191.466667-426.666667 426.666667-426.666667 426.666667 191.466667 426.666667 426.666667-191.466667 426.666667-426.666667 426.666667zM723.2 595.2l-150.933333-271.466667H451.733333V444.266667l271.466667 150.933333zM576 42.666667v-106.666667H448v106.666667h128z m205.866667 132.266666l30.4-30.4c-17.6-22.4-37.866667-42.666667-60.266667-60.266666l-30.4 30.4c22.4 17.066667 42.666667 37.333333 60.266667 60.266666z m-539.733334 0c17.6-22.4 37.866667-42.666667 60.266667-60.266666l-30.4-30.4c-22.4 17.6-42.666667 37.866667-60.266667 60.266666l30.4 30.4zM960 448v-128h-128V448h128zM170.666667 448v-128H64V448h106.666667z m101.866666 236.266667l30.4-30.4c-22.4-17.6-42.666667-37.866667-60.266666-60.266667L212.266667 624c17.6 21.866667 37.866667 42.133333 60.266666 60.266667z m478.933334 0c22.4-17.6 42.666667-37.866667 60.266666-60.266667l-30.4-30.4c-17.6 22.4-37.866667 42.666667-60.266666 60.266667l30.4 30.4zM576 832v-106.666667H448V832h128z"  horiz-adv-x="1024" />

    
    <glyph glyph-name="Save" unicode="&#58911;" d="M917.333333-21.333333H106.666667V789.333333h597.333333l213.333333-213.333333v-597.333333z m-768 42.666666h725.333334V558.4L686.4 746.666667H149.333333v-725.333334zM640 746.666667v-277.333334H234.666667V746.666667h405.333333z m-80-42.666667H490.666667v-149.333333h69.333333V704zM789.333333 192v-213.333333h-42.666666v170.666666H277.333333v-170.666666h-42.666666v213.333333h554.666666z"  horiz-adv-x="1024" />

    
    <glyph glyph-name="Correct" unicode="&#58909;" d="M404.266667 96L117.333333 382.933333l60.266667 60.266667 226.133333-226.133333 452.8 452.8L917.333333 609.066667 404.266667 96z"  horiz-adv-x="1024" />

    
    <glyph glyph-name="Incorrect" unicode="&#58910;" d="M828.784 640.442667l-256.448-256.437334 256.448-256.448-60.341333-60.341333L512 323.664l-256.437333-256.448-60.341334 60.341333L451.658667 384 195.216 640.442667l60.341333 60.341333 256.437334-256.442667 256.448 256.442667 60.341333-60.341333z"  horiz-adv-x="1024" />

    
    <glyph glyph-name="Delete" unicode="&#58908;" d="M170.666667 725.333333h682.666666v-85.333333H170.666667zM384 853.333333h256v-85.333333H384zM768-85.333333H256L213.333333 682.666667h597.333334l-42.666667-768z m-471.466667 42.666666h431.466667l37.866667 682.666667H258.666667l37.866666-682.666667zM469.333333 512v-426.666667H384V512h85.333333z m170.666667 0v-426.666667h-85.333333V512h85.333333z"  horiz-adv-x="1024" />

    
    <glyph glyph-name="Upload" unicode="&#58906;" d="M512 725.333333c132.112 0 242.650667-92.373333 270.544-216.058666C895.114667 492.010667 981.333333 394.741333 981.333333 277.333333c0-128.309333-102.970667-232.565333-230.784-234.634666L746.666667 42.666667h-144v42.666666h144l3.173333 0.026667C854.416 87.056 938.666667 172.357333 938.666667 277.333333c0 104.976-84.250667 190.277333-188.826667 191.973334L746.666667 469.333333l-0.96-0.005333C734.933333 588.933333 634.421333 682.666667 512 682.666667c-129.6 0-234.666667-105.066667-234.666667-234.666667 0-25.978667 4.224-50.976 12.021334-74.330667A148.949333 148.949333 0 0 1 234.666667 384c-82.474667 0-149.333333-66.858667-149.333334-149.333333 0-81.653333 65.530667-147.994667 146.864-149.312L234.666667 85.333333h192v-42.666666H234.666667c-106.037333 0-192 85.962667-192 192s85.962667 192 192 192h0.816A276.453333 276.453333 0 0 0 234.666667 448c0 153.168 124.165333 277.333333 277.333333 277.333333zM512 384l46.544-52.362667L682.666667 192h-128.005334l0.005334-149.333333H469.333333l-0.005333 149.338666L341.333333 192l170.666667 192z"  horiz-adv-x="1024" />

    
    <glyph glyph-name="Download" unicode="&#58907;" d="M512 725.333333c132.112 0 242.650667-92.373333 270.544-216.058666C895.114667 492.010667 981.333333 394.741333 981.333333 277.333333c0-128.309333-102.970667-232.565333-230.784-234.634666L746.666667 42.666667h-128v42.666666h128l3.173333 0.026667C854.416 87.056 938.666667 172.357333 938.666667 277.333333c0 104.976-84.250667 190.277333-188.826667 191.973334L746.666667 469.333333l-0.96-0.005333C734.933333 588.933333 634.421333 682.666667 512 682.666667c-129.6 0-234.666667-105.066667-234.666667-234.666667 0-25.978667 4.224-50.976 12.021334-74.330667A148.949333 148.949333 0 0 1 234.666667 384c-82.474667 0-149.333333-66.858667-149.333334-149.333333 0-81.653333 65.530667-147.994667 146.864-149.312L234.666667 85.333333h170.666666v-42.666666H234.666667c-106.037333 0-192 85.962667-192 192s85.962667 192 192 192h0.816A276.453333 276.453333 0 0 0 234.666667 448c0 153.168 124.165333 277.333333 277.333333 277.333333zM512 42.666667l46.544 52.362666L682.666667 234.666667h-128.005334L554.666667 384H469.333333l-0.005333-149.338667L341.333333 234.666667l170.666667-192z"  horiz-adv-x="1024" />

    
    <glyph glyph-name="H5" unicode="&#58905;" d="M512-85.333333l-329.6 106.666666L106.666667 853.333333h810.666666l-75.733333-832L512-85.333333z m-289.6 138.666666L512-40.533333l289.6 93.866666 69.333333 757.333334H153.6l68.8-757.333334zM340.266667 384L320 640h384l-6.933333-85.333333H416l9.6-85.333334h265.066667l-22.4-283.2L512 128l-155.733333 58.133333-9.066667 112.533334H432l3.733333-53.333334 75.2-32 75.733334 32 9.6 138.666667h-256z"  horiz-adv-x="1024" />

    
    <glyph glyph-name="MiniProgram" unicode="&#58904;" d="M512-85.333333c-258.666667 0-469.333333 210.666667-469.333333 469.333333S253.333333 853.333333 512 853.333333s469.333333-210.666667 469.333333-469.333333-210.666667-469.333333-469.333333-469.333333z m0 896c-235.2 0-426.666667-191.466667-426.666667-426.666667s191.466667-426.666667 426.666667-426.666667 426.666667 191.466667 426.666667 426.666667-191.466667 426.666667-426.666667 426.666667zM628.266667 341.333333c-22.933333 0.533333-41.6 19.733333-41.6 42.666667 0 23.466667 19.2 42.666667 42.666666 42.666667 41.066667 0 74.666667 33.6 74.666667 74.666666s-33.6 74.666667-74.666667 74.666667-74.666667-33.6-74.666666-74.666667v-240c-2.666667-85.866667-73.066667-154.666667-160-154.666666-88.533333 0-160 71.466667-160 160s71.466667 160 160 160h1.066666c22.933333-0.533333 41.6-19.733333 41.6-42.666667 0-23.466667-19.2-42.666667-42.666666-42.666667-41.066667 0-74.666667-33.6-74.666667-74.666666s33.6-74.666667 74.666667-74.666667 74.666667 33.6 74.666666 74.666667V506.666667c2.666667 85.866667 73.066667 154.666667 160 154.666666 88.533333 0 160-71.466667 160-160s-71.466667-160-160-160h-1.066666z"  horiz-adv-x="1024" />

    
    <glyph glyph-name="Mobile" unicode="&#58903;" d="M853.333333-85.333333H170.666667V853.333333h682.666666v-938.666666z m-640 42.666666h597.333334V810.666667H213.333333v-853.333334zM426.666667 128h170.666666c23.466667 0 42.666667-19.2 42.666667-42.666667s-19.2-42.666667-42.666667-42.666666H426.666667c-23.466667 0-42.666667 19.2-42.666667 42.666666s19.2 42.666667 42.666667 42.666667zM170.666667 0h682.666666v-85.333333H170.666667zM170.666667 853.333333h682.666666v-85.333333H170.666667z"  horiz-adv-x="1024" />

    
    <glyph glyph-name="Computer" unicode="&#58902;" d="M554.666667 128v-64h192v-85.333333H277.333333v85.333333h192v64h85.333334zM917.333333 106.666667H106.666667V789.333333h810.666666v-682.666666z m-768 42.666666h725.333334V746.666667H149.333333v-597.333334z"  horiz-adv-x="1024" />

    
    <glyph glyph-name="Logout" unicode="&#58901;" d="M512-85.333333c-125.333333 0-243.2 49.066667-331.733333 137.6S42.666667 258.666667 42.666667 384c0 107.2 35.2 208 101.333333 291.2 60.266667 76.266667 141.333333 131.2 234.133333 158.933333l27.2 8v-178.666666l-12.8-5.333334c-51.2-22.4-94.933333-58.666667-126.933333-104.533333C231.466667 503.466667 213.333333 444.8 213.333333 384c0-80 30.933333-154.666667 87.466667-211.2C357.333333 116.266667 432 85.333333 512 85.333333s154.666667 30.933333 211.2 87.466667C779.733333 229.333333 810.666667 304 810.666667 384c0 60.8-18.133333 119.466667-52.266667 169.066667-32 46.4-75.733333 82.133333-126.933333 104.533333l-12.8 5.333333V842.133333l27.2-8c92.8-27.733333 173.333333-82.133333 233.6-158.4C946.133333 592 981.333333 491.2 981.333333 384c0-125.333333-49.066667-243.2-137.6-331.733333S637.333333-85.333333 512-85.333333zM362.666667 784c-72.533333-27.2-136.533333-73.066667-185.066667-134.933333C117.333333 572.8 85.333333 481.066667 85.333333 384c0-114.133333 44.266667-221.333333 124.8-301.866667C290.666667 1.6 397.866667-42.666667 512-42.666667s221.333333 44.266667 301.866667 124.8C894.4 162.666667 938.666667 269.866667 938.666667 384c0 97.066667-32 188.8-92.266667 265.066667A426.933333 426.933333 0 0 1 661.333333 784v-92.8c52.8-25.6 98.666667-65.066667 132.266667-113.6C832.533333 520 853.333333 453.333333 853.333333 384c0-91.2-35.733333-177.066667-99.733333-241.6-64.533333-64-150.4-99.733333-241.6-99.733333s-177.066667 35.733333-241.6 99.733333C206.4 206.933333 170.666667 292.8 170.666667 384c0 69.333333 20.8 136 59.733333 193.066667C264 626.133333 309.333333 665.066667 362.666667 690.666667V784zM448 853.333333h128v-298.666666H448z"  horiz-adv-x="1024" />

    
    <glyph glyph-name="Search" unicode="&#58900;" d="M512-85.333333c-258.666667 0-469.333333 210.666667-469.333333 469.333333S253.333333 853.333333 512 853.333333s469.333333-210.666667 469.333333-469.333333-210.666667-469.333333-469.333333-469.333333z m0 896c-235.2 0-426.666667-191.466667-426.666667-426.666667s191.466667-426.666667 426.666667-426.666667 426.666667 191.466667 426.666667 426.666667-191.466667 426.666667-426.666667 426.666667zM896-85.333333l85.333333 85.333333-106.666666 106.666667-85.333334-85.333334zM512 725.333333v-85.333333c-141.333333 0-256-114.666667-256-256v-1.6l-85.333333-0.533333V384c0 188.266667 153.066667 341.333333 341.333333 341.333333z"  horiz-adv-x="1024" />

    
    <glyph glyph-name="Faild" unicode="&#58899;" d="M512-85.333333c-258.666667 0-469.333333 210.666667-469.333333 469.333333S253.333333 853.333333 512 853.333333s469.333333-210.666667 469.333333-469.333333-210.666667-469.333333-469.333333-469.333333z m0 896c-235.2 0-426.666667-191.466667-426.666667-426.666667s191.466667-426.666667 426.666667-426.666667 426.666667 191.466667 426.666667 426.666667-191.466667 426.666667-426.666667 426.666667zM723.2 534.933333L572.266667 384l150.933333-150.933333-60.266667-60.266667L512 323.733333l-150.933333-150.933333-60.266667 60.266667L451.733333 384 300.8 534.933333l60.266667 60.266667L512 444.266667l150.933333 150.933333 60.266667-60.266667z"  horiz-adv-x="1024" />

    
    <glyph glyph-name="Success" unicode="&#58898;" d="M512-85.333333c-258.666667 0-469.333333 210.666667-469.333333 469.333333S253.333333 853.333333 512 853.333333s469.333333-210.666667 469.333333-469.333333-210.666667-469.333333-469.333333-469.333333z m0 896c-235.2 0-426.666667-191.466667-426.666667-426.666667s191.466667-426.666667 426.666667-426.666667 426.666667 191.466667 426.666667 426.666667-191.466667 426.666667-426.666667 426.666667zM421.333333 160.533333L240.533333 341.333333l60.266667 60.266667L421.333333 281.066667l301.866667 301.866666L783.466667 522.666667 421.333333 160.533333z"  horiz-adv-x="1024" />

    
    <glyph glyph-name="Attention" unicode="&#58897;" d="M512-85.333333c-258.666667 0-469.333333 210.666667-469.333333 469.333333S253.333333 853.333333 512 853.333333s469.333333-210.666667 469.333333-469.333333-210.666667-469.333333-469.333333-469.333333z m0 896c-235.2 0-426.666667-191.466667-426.666667-426.666667s191.466667-426.666667 426.666667-426.666667 426.666667 191.466667 426.666667 426.666667-191.466667 426.666667-426.666667 426.666667zM512 213.333333c23.466667 0 42.666667-19.2 42.666667-42.666666s-19.2-42.666667-42.666667-42.666667-42.666667 19.2-42.666667 42.666667 19.2 42.666667 42.666667 42.666666z m42.666667 426.666667v-384H469.333333V640h85.333334z"  horiz-adv-x="1024" />

    
    <glyph glyph-name="Help" unicode="&#58896;" d="M512-85.333333c-258.666667 0-469.333333 210.666667-469.333333 469.333333S253.333333 853.333333 512 853.333333s469.333333-210.666667 469.333333-469.333333-210.666667-469.333333-469.333333-469.333333z m0 896c-235.2 0-426.666667-191.466667-426.666667-426.666667s191.466667-426.666667 426.666667-426.666667 426.666667 191.466667 426.666667 426.666667-191.466667 426.666667-426.666667 426.666667zM512 213.333333c23.466667 0 42.666667-19.2 42.666667-42.666666s-19.2-42.666667-42.666667-42.666667-42.666667 19.2-42.666667 42.666667 19.2 42.666667 42.666667 42.666666z m0 426.666667c94.4 0 170.666667-76.266667 170.666667-170.666667 0-79.466667-54.4-146.133333-128-165.333333v-48H469.333333V384h42.666667c46.933333 0 85.333333 38.4 85.333333 85.333333s-38.4 85.333333-85.333333 85.333334-85.333333-38.4-85.333333-85.333334H341.333333c0 94.4 76.266667 170.666667 170.666667 170.666667z"  horiz-adv-x="1024" />

    
    <glyph glyph-name="Left" unicode="&#58892;" d="M917.333333 426.666667H298.672L298.666667 554.666667 106.666667 384l192-170.666667 0.005333 128H917.333333V426.666667z"  horiz-adv-x="1024" />

    
    <glyph glyph-name="Down" unicode="&#58893;" d="M554.666667 789.333333v-618.661333l128-0.005333-170.666667-192-170.666667 192 128 0.005333V789.333333h85.333334z"  horiz-adv-x="1024" />

    
    <glyph glyph-name="Right" unicode="&#58894;" d="M106.666667 426.666667l618.661333-0.005334L725.333333 554.666667l192-170.666667-192-170.666667-0.005333 127.994667L106.666667 341.333333V426.666667z"  horiz-adv-x="1024" />

    
    <glyph glyph-name="Up" unicode="&#58895;" d="M554.666667-21.333333V597.328L682.666667 597.333333 512 789.333333 341.333333 597.333333l128-0.005333V-21.333333h85.333334z"  horiz-adv-x="1024" />

    
    <glyph glyph-name="Sort" unicode="&#58890;" d="M469.333333-21.333333l-192 192h106.666667V789.333333h85.333333v-810.666666zM554.666667 789.333333l192-192h-106.666667v-618.666666h-85.333333V789.333333z"  horiz-adv-x="1024" />

    
    <glyph glyph-name="Tab" unicode="&#58891;" d="M106.666667 426.666667l192 192v-106.666667h618.666666v-85.333333H106.666667zM917.333333 336.432l-30.101333-25.2L725.333333 149.333333v106.666667H106.666667v85.333333h810.666666v-4.901333z"  horiz-adv-x="1024" />

    
    <glyph glyph-name="Status" unicode="&#58889;" d="M490.666667-85.333333l-23.466667 2.133333c-108.266667 10.133333-210.133333 58.133333-286.933333 135.466667-77.333333 76.8-125.333333 179.2-135.466667 286.933333L42.666667 362.666667h213.333333l2.666667-18.133334c8.533333-53.866667 33.066667-102.933333 72-141.866666 38.933333-38.933333 87.466667-63.466667 141.866666-72l18.133334-2.666667v-213.333333z m-400.533334 405.333333c13.333333-89.6 55.466667-173.333333 120-237.866667 64.533333-64.533333 148.266667-106.666667 237.866667-120v130.133334c-56 12.266667-106.133333 40-147.2 80.533333-41.066667 41.066667-68.266667 91.2-80.533333 147.2H90.133333z m443.2-405.333333v213.333333l18.133334 2.666667c53.866667 8.533333 102.933333 33.066667 141.866666 72s63.466667 87.466667 72 141.866666l2.666667 18.133334h213.333333l-2.133333-23.466667c-10.133333-108.266667-58.133333-210.133333-135.466667-286.933333-77.333333-77.333333-179.2-125.333333-286.933333-135.466667l-23.466667-2.133333z m42.666667 177.6v-130.133334c89.6 13.333333 173.333333 55.466667 237.866667 120s106.666667 148.266667 120 237.866667h-130.133334c-12.266667-56-40-106.133333-80.533333-147.2s-91.2-68.266667-147.2-80.533333zM768 405.333333l-2.666667 18.133334c-8.533333 53.866667-33.066667 102.933333-72 141.866666-38.933333 38.933333-87.466667 63.466667-141.866666 72L533.333333 640V853.333333l23.466667-2.133333c108.266667-10.133333 210.133333-58.133333 286.933333-135.466667 77.333333-77.333333 125.333333-179.2 135.466667-286.933333l2.133333-23.466667h-213.333333z m-192 270.4c56-12.266667 106.133333-40 147.2-80.533333 41.066667-41.066667 68.266667-91.2 80.533333-147.2h130.133334c-13.333333 89.6-55.466667 173.333333-120 237.866667-64.533333 64.533333-148.266667 106.666667-237.866667 120v-130.133334zM256 405.333333H42.666667l2.133333 23.466667c10.133333 108.266667 58.133333 210.133333 135.466667 286.933333C257.066667 793.066667 359.466667 841.066667 467.2 851.2L490.666667 853.333333v-213.333333l-18.133334-2.666667C418.666667 628.8 369.6 604.266667 330.666667 565.333333c-38.933333-38.933333-63.466667-87.466667-72-141.866666L256 405.333333z m-165.866667 42.666667h130.133334c12.266667 56 40 106.133333 80.533333 147.2S392 663.466667 448 675.733333V805.866667c-89.6-13.333333-173.333333-55.466667-237.866667-120-64.533333-64.533333-106.666667-148.266667-120-237.866667zM490.666667 852.8v-213.866667C366.4 628.8 267.2 529.6 257.066667 405.333333H43.2c10.666667 242.133333 205.333333 436.8 447.466667 447.466667z"  horiz-adv-x="1024" />

    
    <glyph glyph-name="Reduce" unicode="&#58887;" d="M917.333333 426.666667v-85.333334H106.666667V426.666667z"  horiz-adv-x="1024" />

    
    <glyph glyph-name="Cross" unicode="&#58888;" d="M469.333333 789.333333h85.333334v-810.666666H469.333333zM917.333333 426.666667v-85.333334H106.666667V426.666667z"  horiz-adv-x="1024" />

    
    <glyph glyph-name="Message" unicode="&#58886;" d="M42.666667-85.333333l76.8 211.733333C69.333333 202.666667 42.666667 291.733333 42.666667 384c0 125.333333 49.066667 243.2 137.6 331.733333S386.666667 853.333333 512 853.333333s243.2-49.066667 331.733333-137.6S981.333333 509.333333 981.333333 384s-49.066667-243.2-137.6-331.733333S637.333333-85.333333 512-85.333333c-92.266667 0-181.333333 26.666667-257.6 76.8L42.666667-85.333333z m217.6 124.8l9.066666-6.4C340.8-16.533333 424.533333-42.666667 512-42.666667c114.133333 0 221.333333 44.266667 301.866667 124.8C894.4 162.666667 938.666667 269.866667 938.666667 384s-44.266667 221.333333-124.8 301.866667C733.333333 766.4 626.133333 810.666667 512 810.666667s-221.333333-44.266667-301.866667-124.8C129.6 605.333333 85.333333 498.133333 85.333333 384c0-87.466667 26.133333-171.2 75.733334-242.666667l6.4-9.066666-53.333334-146.133334 146.133334 53.333334zM664 277.333333c23.466667 0 42.666667-19.2 42.666667-42.666666 0-12.266667-5.333333-22.933333-13.333334-30.933334-46.4-46.4-110.4-75.733333-181.333333-75.733333-70.4 0-134.4 28.266667-180.266667 74.666667-9.066667 8-14.4 19.2-14.4 32 0 23.466667 19.2 42.666667 42.666667 42.666666 13.333333 0 25.6-6.4 33.066667-16l-1.066667 1.066667c30.933333-30.4 73.066667-49.066667 120-49.066667 46.4 0 88 18.133333 118.933333 48 7.466667 9.6 19.733333 16 33.066667 16z"  horiz-adv-x="1024" />

    
    <glyph glyph-name="System" unicode="&#58885;" d="M618.666667-85.333333H405.333333v78.4c-33.066667 9.066667-64.533333 21.866667-94.4 38.933333l-55.466666-55.466667-150.933334 150.933334L160 182.933333c-17.066667 29.866667-30.4 61.333333-38.933333 94.4H42.666667V490.666667h77.866666c9.066667 33.066667 21.866667 64.533333 38.933334 94.4L104.533333 640.533333l150.933334 150.933334L310.933333 736c29.866667 17.066667 61.333333 30.4 94.4 38.933333V853.333333h213.333334v-78.4c33.066667-9.066667 64.533333-21.866667 94.4-38.933333l55.466666 55.466667 150.933334-150.933334L864 585.066667c17.066667-29.866667 30.4-61.333333 38.933333-94.4H981.333333v-213.333334h-78.4c-9.066667-33.066667-21.866667-64.533333-38.933333-94.4l55.466667-55.466666-150.933334-150.933334-55.466666 55.466667c-29.866667-17.066667-61.333333-30.4-94.4-38.933333V-85.333333z m-170.666667 42.666666h128v69.333334l16.533333 3.733333c40 9.066667 77.866667 24.533333 112.533334 46.4l14.4 9.066667 49.066666-49.066667 90.666667 90.666667-49.066667 49.066666 9.066667 14.4c21.866667 34.666667 37.333333 72.533333 46.4 112.533334l3.733333 16.533333h69.333334V448h-69.333334l-3.733333 16.533333c-9.066667 40-24.533333 77.866667-46.4 112.533334l-9.066667 14.4 49.066667 49.066666-90.666667 90.666667-49.066666-49.066667-14.4 9.066667c-34.666667 21.866667-72.533333 37.333333-112.533334 46.4L576 741.333333V810.666667H448v-69.333334l-16.533333-3.733333c-40-9.066667-77.866667-24.533333-112.533334-46.4l-14.4-9.066667-49.066666 49.066667-90.666667-90.666667 49.066667-49.066666-9.066667-14.4c-21.866667-34.666667-37.333333-72.533333-46.4-112.533334L154.666667 448H85.333333v-128h69.333334l3.733333-16.533333c9.066667-40 24.533333-77.866667 46.4-112.533334l9.066667-14.4-49.066667-49.066666 90.666667-90.666667 49.066666 49.066667 14.4-9.066667c34.666667-21.866667 72.533333-37.333333 112.533334-46.4l16.533333-3.733333v-69.333334z m64 213.333334c-57.066667 0-110.4 22.4-150.933333 62.4C321.066667 273.6 298.666667 326.933333 298.666667 384s22.4 110.4 62.4 150.933333C401.6 574.933333 454.933333 597.333333 512 597.333333s110.4-22.4 150.933333-62.4C702.933333 494.4 725.333333 441.066667 725.333333 384s-22.4-110.4-62.4-150.933333S569.066667 170.666667 512 170.666667z m0 384c-45.333333 0-88.533333-17.6-120.533333-50.133334-32-32-50.133333-75.2-50.133334-120.533333 0-45.333333 17.6-88.533333 50.133334-120.533333S466.666667 213.333333 512 213.333333c45.333333 0 88.533333 17.6 120.533333 50.133334S682.666667 338.666667 682.666667 384c0 45.333333-17.6 88.533333-50.133334 120.533333-32 32.533333-75.2 50.133333-120.533333 50.133334zM512 384m-128 0a128 128 0 1 1 256 0 128 128 0 1 1-256 0Z"  horiz-adv-x="1024" />

    
    <glyph glyph-name="Flow" unicode="&#58884;" d="M917.333333-21.333333h-384v170.666666h384v-170.666666z m-341.333333 42.666666h298.666667v85.333334h-298.666667v-85.333334zM448 618.666667H106.666667V789.333333h341.333333v-170.666666z m-298.666667 42.666666h256V746.666667H149.333333v-85.333334zM106.666667 490.666667h810.666666v-213.333334H106.666667zM618.666667 789.333333v-64h3.2c109.333333-1.6 198.4-85.333333 209.066666-192h-43.2c-10.666667 84.266667-82.133333 149.333333-169.6 149.333334v-64L490.666667 704l128 85.333333zM361.6-21.333333v64h-3.2c-109.333333 1.6-198.4 85.333333-209.066667 192h43.2c10.666667-84.266667 82.133333-149.333333 169.6-149.333334v64l128-85.333333-128.533333-85.333333z"  horiz-adv-x="1024" />

    
    <glyph glyph-name="Frame" unicode="&#58883;" d="M917.333333 618.666667H106.666667V789.333333h810.666666v-170.666666zM149.333333 661.333333h725.333334V746.666667H149.333333v-85.333334zM320-21.333333H106.666667V576h213.333333v-597.333333z m-170.666667 42.666666h128V533.333333H149.333333v-512zM362.666667 576h554.666666v-597.333333H362.666667z"  horiz-adv-x="1024" />

    
    <glyph glyph-name="Application" unicode="&#58882;" d="M106.666667 789.333333h384v-384H106.666667zM917.333333 405.333333h-384V789.333333h384v-384z m-341.333333 42.666667h298.666667V746.666667h-298.666667v-298.666667zM917.333333-21.333333h-384v384h384v-384z m-341.333333 42.666666h298.666667v298.666667h-298.666667v-298.666667zM490.666667-21.333333H106.666667v384h384v-384z m-341.333334 42.666666h298.666667v298.666667H149.333333v-298.666667z"  horiz-adv-x="1024" />

    
    <glyph glyph-name="Service" unicode="&#58881;" d="M512 853.333333l469.333333-234.666666-469.333333-234.666667L42.666667 618.666667zM512-85.333333L42.666667 149.333333l469.333333 234.666667 469.333333-234.666667-469.333333-234.666666z m-385.6 234.666666L512-43.733333l385.6 193.066666L512 342.4 126.4 149.333333zM512 149.333333L42.666667 384l469.333333 234.666667 469.333333-234.666667-469.333333-234.666667zM126.4 384L512 190.933333 897.6 384 512 577.066667 126.4 384z"  horiz-adv-x="1024" />

    
    <glyph glyph-name="Folder" unicode="&#58880;" d="M917.333333-21.33333300000004H106.666667V704h810.666666v-725.333333z m-768 42.666666h725.333334V661.333333H149.333333v-640zM106.666667 789.333333h298.666666l128-128H106.666667zM576 192h213.333333v-85.333333h-213.333333z"  horiz-adv-x="1024" />

    


  </font>
</defs>
</svg>
